<svg xmlns="http://www.w3.org/2000/svg" width="96.944" height="93.623" viewBox="0 0 96.944 93.623">
  <g id="logout_2_" data-name="logout (2)" transform="translate(0 -1.66)">
    <g id="Сгруппировать_83" data-name="Сгруппировать 83">
      <path id="Контур_7107" data-name="Контур 7107" d="M61.168,83.92h-49.8V13.025H61.17a2,2,0,0,0,2-2V3.66a2,2,0,0,0-2-2H2a2,2,0,0,0-2,2V93.283a2,2,0,0,0,2,2H61.168a2,2,0,0,0,2-2V85.92A2,2,0,0,0,61.168,83.92Z"/>
      <path id="Контур_7108" data-name="Контур 7108" d="M96.355,47.058,69.433,20.138a2.057,2.057,0,0,0-2.828,0l-6.387,6.388a2,2,0,0,0,0,2.828l12.16,12.162H39a2,2,0,0,0-2,2v9.912a2,2,0,0,0,2,2H72.381L60.221,67.59a2,2,0,0,0,0,2.828l6.387,6.389a2,2,0,0,0,2.828,0l26.922-26.92a2,2,0,0,0,0-2.829Z"/>
    </g>
  </g>
</svg>
