<svg width="24" height="23" viewBox="0 0 24 23" fill="none" xmlns="http://www.w3.org/2000/svg">
<path d="M15.4089 11.6666C15.4089 13.5463 13.8797 15.0755 12 15.0755C10.1202 15.0755 8.59105 13.5463 8.59105 11.6666C8.59105 9.78687 10.1202 8.25768 12 8.25768C13.8797 8.25768 15.4089 9.78687 15.4089 11.6666ZM12 0.333252C5.75044 0.333252 0.666626 5.41706 0.666626 11.6666C0.666626 17.9161 5.75044 22.9999 12 22.9999C14.2893 22.9999 16.4969 22.3183 18.3839 21.0287L18.4162 21.0061L16.8895 19.2316L16.8636 19.2478C15.4113 20.1828 13.7291 20.6766 12 20.6766C7.03191 20.6766 2.98996 16.6346 2.98996 11.6666C2.98996 6.69854 7.03191 2.65659 12 2.65659C16.968 2.65659 21.01 6.69854 21.01 11.6666C21.01 12.3102 20.9379 12.9618 20.7979 13.603C20.5129 14.7727 19.6937 15.1305 19.0792 15.0836C18.4608 15.0334 17.7371 14.593 17.7322 13.5147V12.6931V11.6666C17.7322 8.5054 15.1612 5.93435 12 5.93435C8.83877 5.93435 6.26772 8.5054 6.26772 11.6666C6.26772 14.8278 8.83877 17.3988 12 17.3988C13.5356 17.3988 14.9758 16.799 16.0613 15.7069C16.6928 16.6897 17.7217 17.3057 18.8931 17.3996C18.9934 17.4077 19.0962 17.4118 19.1974 17.4118C20.0223 17.4118 20.8392 17.1357 21.4981 16.6363C22.1773 16.1198 22.6849 15.3742 22.965 14.4781C23.0095 14.3332 23.0921 14.0021 23.0921 13.9996L23.0945 13.9875C23.2596 13.2686 23.3333 12.5522 23.3333 11.6666C23.3333 5.41706 18.2495 0.333252 12 0.333252" fill="#FF9E00"/>
</svg>
