<svg width="15" height="25" viewBox="0 0 15 25" fill="none" xmlns="http://www.w3.org/2000/svg">
<path fill-rule="evenodd" clip-rule="evenodd" d="M7.28584 0.784424C3.78395 0.784424 0.94519 3.59394 0.94519 7.05954C0.94519 10.5252 3.78395 13.3349 7.28584 13.3349C10.7877 13.3349 13.6265 10.5252 13.6265 7.05954C13.6265 3.59394 10.7877 0.784424 7.28584 0.784424ZM7.28584 9.65372C5.83828 9.65372 4.66476 8.49223 4.66476 7.05963C4.66476 5.62704 5.83828 4.46564 7.28584 4.46564C8.73339 4.46564 9.90692 5.62704 9.90692 7.05963C9.90692 8.49223 8.73339 9.65372 7.28584 9.65372ZM9.52448 18.3279C12.0629 17.8161 13.584 16.6265 13.6645 16.5626C14.4073 15.9731 14.5266 14.8992 13.9309 14.164C13.3353 13.4289 12.2504 13.3108 11.5074 13.9003C11.4917 13.9128 9.86928 15.1446 7.19984 15.1463C4.53048 15.1446 2.87378 13.9128 2.85808 13.9003C2.11511 13.3108 1.03014 13.4289 0.434536 14.164C-0.161165 14.8992 -0.0418427 15.9731 0.700945 16.5626C0.782519 16.6273 2.36646 17.848 4.97601 18.3478L1.33911 22.1093C0.67817 22.7877 0.698042 23.8678 1.38348 24.5219C1.71804 24.8412 2.14923 24.9999 2.58005 24.9999C3.03175 24.9999 3.483 24.8252 3.82127 24.4779L7.19993 20.916L10.9199 24.501C11.5939 25.167 12.6853 25.1659 13.358 24.4991C14.0307 23.8323 14.0299 22.752 13.3561 22.0862L9.52448 18.3279Z" fill="#F7931E"/>
</svg>
