<svg width="27" height="16" viewBox="0 0 27 16" fill="none" xmlns="http://www.w3.org/2000/svg">
<path fill-rule="evenodd" clip-rule="evenodd" d="M25.7368 1.03827C25.9175 0.439778 25.7368 0 24.8766 0H22.0322C21.3089 0 20.9755 0.379903 20.7947 0.798826C20.7947 0.798826 19.3482 4.29998 17.2991 6.57421C16.6361 7.23252 16.3347 7.44198 15.9731 7.44198C15.7923 7.44198 15.5306 7.23252 15.5306 6.63408V1.03828C15.5306 0.32008 15.3207 0 14.718 0H10.2482C9.79622 0 9.52441 0.333331 9.52441 0.64924C9.52441 1.33007 10.5489 1.48708 10.6545 3.40226V7.56173C10.6545 8.47368 10.4887 8.63902 10.1271 8.63902C9.16279 8.63902 6.8172 5.12223 5.42605 1.0981C5.15342 0.315948 4.87997 0 4.15302 0H1.30861C0.49592 0 0.333374 0.379903 0.333374 0.798826C0.333374 1.54696 1.29769 5.25757 4.8234 10.1651C7.17385 13.5166 10.4855 15.3333 13.4989 15.3333C15.307 15.3333 15.5307 14.9298 15.5307 14.2348V11.7018C15.5307 10.8947 15.7019 10.7337 16.2745 10.7337C16.6964 10.7337 17.4196 10.9431 19.1072 12.559C21.0358 14.4742 21.3537 15.3333 22.4385 15.3333H25.2829C26.0956 15.3333 26.502 14.9298 26.2675 14.1335C26.011 13.3399 25.0902 12.1884 23.8684 10.8234C23.2054 10.0454 22.211 9.20758 21.9096 8.78856C21.4878 8.24999 21.6083 8.01054 21.9096 7.5318C21.9096 7.5318 25.3751 2.68407 25.7368 1.03827V1.03827Z" fill="#5181B8"/>
</svg>
